# xmcd
#
# Track frame offsets:
#	150
#	5549
#	45767
#	89042
#	134852
#	140384
#	153262
#	163932
#	175848
#
# Disc length: 2462 seconds
#
# Revision: 1
# Processed by: cddbd v1.4PL0 Copyright (c) Steve Scherf et al.
# Submitted via: audiograbber 1.81.03
#
DISCID=74099c09
DTITLE=Marvin Gaye - Marvin Gaye Live - CD2
DYEAR=2002
DGENRE=Soul
TTITLE0=If this world was mine
TTITLE1=Rockin' after midnight
TTITLE2=Distant lover
TTITLE3=Sexual healing
TTITLE4=Let's be friends
TTITLE5=Interlude/African dance
TTITLE6=Pride and joy
TTITLE7=Stubborn kind of fellow
TTITLE8=Outro
EXTD=
EXTT0=
EXTT1=
EXTT2=
EXTT3=
EXTT4=
EXTT5=
EXTT6=
EXTT7=
EXTT8=
PLAYORDER=
